<svg width="24" height="24" xmlns="http://www.w3.org/2000/svg">
  <path
    d="M3 0a3 3 0 00-3 3v18a3 3 0 003 3h18a3 3 0 003-3V3a3 3 0 00-3-3H3zm13.924 7.117C16.924 9.814 14.72 12 12 12S7.076 9.814 7.076 7.117c0-2.698 2.204-4.884 4.924-4.884s4.924 2.186 4.924 4.884zm-3.077 13.429l1.839-7.302c2.743.13 4.932 2.354 4.932 5.104v1.587a1.84 1.84 0 01-1.847 1.832H5.23a1.84 1.84 0 01-1.847-1.832v-1.587c0-2.75 2.19-4.975 4.932-5.104l1.84 7.302 1.23-5.189-1.23-2.136h3.693l-1.231 2.136 1.23 5.189z"
    fill="#FFFFFF" />
</svg>
