<svg width="24" height="24" xmlns="http://www.w3.org/2000/svg">
  <path fill-rule="evenodd"
    d="M3 0a3 3 0 00-3 3v18a3 3 0 003 3h18a3 3 0 003-3V3a3 3 0 00-3-3H3zm14.121 7.898l4.923-5.107a.5.5 0 00-.72-.694L16.4 7.204l.72.694zm-.47-4.026l-5.024 5.024-.707-.707 5.024-5.024a.5.5 0 11.707.707zm-1.463 4.155c-1.823-.065-3.244 1.365-3.176 3.182.017.455.402.84.858.856 1.825.065 3.247-1.365 3.176-3.183a.905.905 0 00-.858-.855zm-3.917 5.246a2.543 2.543 0 013.597 0 .636.636 0 010 .899l-.882.881a2.543 2.543 0 01-3.596 0 .636.636 0 010-.9l.881-.88zM8.142 16.4a2.543 2.543 0 013.596 0 .636.636 0 010 .9l-.881.88a2.543 2.543 0 01-3.596 0 .636.636 0 010-.898l.881-.882zm-3.13 3.13a2.543 2.543 0 013.597 0 .636.636 0 010 .899l-.881.881a2.543 2.543 0 01-3.597 0 .636.636 0 010-.899l.882-.881zm2.458-7.418a2.543 2.543 0 010 3.596l-.881.882a.636.636 0 01-.9 0 2.543 2.543 0 010-3.597l.882-.881a.636.636 0 01.899 0zm3.13.467a2.543 2.543 0 000-3.596.636.636 0 00-.9 0l-.881.881a2.543 2.543 0 000 3.597c.248.248.65.248.899 0l.881-.882zm-6.258 2.662a2.543 2.543 0 010 3.597l-.882.881a.636.636 0 01-.899 0 2.543 2.543 0 010-3.596l.882-.882a.636.636 0 01.899 0zm15.566-6.216l-4.076 4.076-.707-.707L19.2 8.319a.5.5 0 11.707.707z"
    fill="#FFFFFF" />
</svg>
