<svg width="147" height="44" xmlns="http://www.w3.org/2000/svg">
  <g clip-path="url(#clip)">
    <path
      d="M12.501.91c-.605 0-1.69 2.18-1.69 4.21 0 3.358.934 3.684 1.69 3.684.757 0 1.69-.326 1.69-3.684-.025-2.03-1.11-4.21-1.69-4.21zM12.501 27c.58 0 1.69-2.181 1.69-4.236 0-3.359-.933-3.684-1.69-3.684-.756 0-1.69.325-1.69 3.684 0 2.055 1.085 4.235 1.69 4.235zM4.783 3.39c-.48.351-.076 2.732 1.135 4.411 1.993 2.707 2.926 2.431 3.557 2.005.605-.45 1.16-1.253-.808-3.96C7.431 4.168 5.262 3.066 4.783 3.39zM20.194 24.493c.48-.35.076-2.732-1.135-4.41-1.992-2.708-2.926-2.432-3.556-2.006-.606.451-1.16 1.253.807 3.96 1.236 1.704 3.405 2.807 3.884 2.456zM.016 9.932c-.177.551 1.564 2.255 3.531 2.907 3.204 1.028 3.809.25 4.061-.451.227-.702.202-1.704-3.001-2.732-1.993-.652-4.414-.3-4.591.276zM24.961 17.977c.177-.552-1.563-2.256-3.53-2.907-3.204-1.028-3.81-.251-4.062.45-.227.703-.201 1.705 3.002 2.733 1.992.651 4.414.3 4.59-.276zM.016 17.977c.177.551 2.598.927 4.565.3 3.204-1.027 3.229-2.03 3.002-2.731-.227-.702-.832-1.479-4.061-.451-1.967.626-3.708 2.33-3.506 2.882zM24.961 9.932c-.176-.552-2.598-.928-4.565-.301-3.203 1.027-3.229 2.03-3.002 2.732.228.702.833 1.504 4.061.451 1.968-.627 3.708-2.33 3.506-2.882zM4.783 24.493c.48.351 2.648-.777 3.86-2.43 1.992-2.708 1.437-3.535.806-3.96-.605-.452-1.564-.728-3.556 2.004-1.21 1.654-1.59 4.06-1.11 4.386zM20.194 3.39c-.479-.35-2.648.777-3.859 2.431-1.992 2.707-1.412 3.534-.807 3.96.606.451 1.564.727 3.556-2.005 1.186-1.629 1.59-4.035 1.11-4.386z"
      fill="#FAD565" />

    <path
      d="M25.969 39.91v-11.9h6.358c1.643 0 2.856.294 3.638.883.782.578 1.173 1.32 1.173 2.227 0 .6-.17 1.14-.51 1.615-.329.465-.81.833-1.445 1.105s-1.417.408-2.346.408l.34-.918c.93 0 1.728.13 2.397.391.68.26 1.201.64 1.564 1.14.374.486.561 1.076.561 1.767 0 1.032-.43 1.836-1.292 2.414-.85.578-2.097.867-3.74.867h-6.698zm3.944-2.806h2.414c.442 0 .77-.08.986-.238.227-.158.34-.39.34-.697 0-.306-.113-.538-.34-.697-.215-.159-.544-.238-.986-.238h-2.686v-2.652h2.142c.453 0 .782-.074.986-.22a.777.777 0 00.323-.664c0-.294-.108-.515-.323-.663-.204-.147-.533-.22-.986-.22h-1.87v6.29zm9.204 2.805v-11.9h4.012v11.9h-4.012zm12.183.272a7.684 7.684 0 01-2.686-.459 6.405 6.405 0 01-2.125-1.292 6.178 6.178 0 01-1.411-1.989 6.181 6.181 0 01-.493-2.482c0-.907.164-1.734.493-2.482.34-.76.81-1.416 1.41-1.972a6.262 6.262 0 012.126-1.309 7.684 7.684 0 012.686-.459c.975 0 1.87.153 2.686.46a6.262 6.262 0 012.125 1.308 5.783 5.783 0 011.394 1.972c.34.748.51 1.576.51 2.482 0 .895-.17 1.723-.51 2.482a5.963 5.963 0 01-1.394 1.99c-.6.555-1.31.985-2.125 1.291-.816.306-1.711.46-2.686.46zm0-3.247c.374 0 .72-.068 1.037-.204.328-.136.612-.328.85-.578.25-.26.442-.572.578-.935.136-.374.204-.793.204-1.258 0-.465-.068-.878-.204-1.24a2.515 2.515 0 00-.578-.936 2.356 2.356 0 00-.85-.595 2.605 2.605 0 00-1.037-.204 2.73 2.73 0 00-1.054.204c-.318.136-.6.335-.85.595-.238.25-.425.561-.561.935a3.518 3.518 0 00-.204 1.241c0 .465.068.884.204 1.258.136.363.323.675.56.935.25.25.533.442.85.578.33.136.68.204 1.055.204zm15.852 2.975V31.12h-3.485v-3.11h10.982v3.11h-3.485v8.79h-4.012zm14.612.272a7.683 7.683 0 01-2.686-.459 6.404 6.404 0 01-2.125-1.292 6.178 6.178 0 01-1.411-1.989 6.181 6.181 0 01-.493-2.482c0-.907.164-1.734.493-2.482.34-.76.81-1.416 1.41-1.972a6.26 6.26 0 012.126-1.309 7.683 7.683 0 012.686-.459c.974 0 1.87.153 2.686.46a6.262 6.262 0 012.125 1.308 5.784 5.784 0 011.394 1.972c.34.748.51 1.576.51 2.482 0 .895-.17 1.723-.51 2.482a5.964 5.964 0 01-1.394 1.99c-.601.555-1.31.985-2.125 1.291-.816.306-1.712.46-2.686.46zm0-3.247c.374 0 .72-.068 1.037-.204.328-.136.612-.328.85-.578.249-.26.442-.572.578-.935.136-.374.204-.793.204-1.258 0-.465-.068-.878-.204-1.24a2.515 2.515 0 00-.578-.936 2.357 2.357 0 00-.85-.595 2.605 2.605 0 00-1.037-.204c-.374 0-.726.068-1.054.204-.318.136-.601.335-.85.595-.238.25-.425.561-.561.935a3.518 3.518 0 00-.204 1.241c0 .465.068.884.204 1.258.136.363.323.675.56.935.25.25.533.442.85.578.33.136.68.204 1.055.204zm8.17 2.975v-11.9h3.299l6.052 7.242h-1.53V28.01h3.91v11.9h-3.298l-6.052-7.242h1.53v7.242h-3.91zm22.501-6.834h5.236v3.026h-5.236v-3.026zm.272 6.834h-4.012v-11.9h9.673v3.026h-5.661v8.874zm6.928 0v-11.9h3.298l4.76 7.77h-1.734l4.624-7.77h3.298l.034 11.9h-3.655l-.034-6.392h.578l-3.162 5.321h-1.768l-3.298-5.32h.714v6.391h-3.655zm20.657.272a12.15 12.15 0 01-2.89-.34c-.93-.227-1.695-.521-2.295-.884l1.292-2.924a8.567 8.567 0 001.887.8 7.698 7.698 0 002.04.288c.385 0 .685-.023.901-.068.226-.056.391-.13.493-.22a.49.49 0 00.153-.358c0-.215-.119-.385-.357-.51s-.556-.227-.952-.306c-.386-.09-.811-.181-1.275-.272a13.854 13.854 0 01-1.411-.39 5.672 5.672 0 01-1.292-.63c-.386-.26-.697-.6-.935-1.02-.238-.43-.357-.963-.357-1.598 0-.736.204-1.405.612-2.006.419-.612 1.037-1.1 1.853-1.462.827-.362 1.853-.544 3.077-.544.804 0 1.598.085 2.38.255.782.17 1.484.43 2.108.782l-1.207 2.907a9.054 9.054 0 00-1.717-.663 6.097 6.097 0 00-1.598-.22c-.386 0-.692.033-.918.101-.227.068-.391.159-.493.272a.583.583 0 00-.136.374c0 .204.119.368.357.493.238.114.549.21.935.29l1.292.254c.476.09.946.215 1.411.374.464.159.889.368 1.275.63.396.26.714.6.952 1.02.238.419.357.94.357 1.563 0 .726-.21 1.394-.629 2.006-.408.6-1.02 1.088-1.836 1.462-.816.363-1.842.544-3.077.544zM64.281 34.468a2.295 2.295 0 11-4.59.03 2.295 2.295 0 014.59-.03z"
      fill="#2E653C" />
  </g>

  <defs>
    <clipPath id="clip">
      <path d="M0 0h147v43H0z" fill="#FFFFFF" />
    </clipPath>
  </defs>
</svg>
