<svg width="149" height="44" xmlns="http://www.w3.org/2000/svg">
  <g>
    <path
      d="M12.218 4.75c0-2.29 1.226-4.75 1.91-4.75.656 0 1.881 2.46 1.91 4.75 0 3.79-1.055 4.157-1.91 4.157s-1.91-.368-1.91-4.157zm3.82 19.907c0 2.318-1.254 4.778-1.91 4.778-.684 0-1.91-2.46-1.91-4.778 0-3.79 1.055-4.157 1.91-4.157s1.91.367 1.91 4.157zM5.406 2.799c-.542.396-.086 3.082 1.282 4.977 2.252 3.054 3.307 2.743 4.02 2.262.684-.51 1.31-1.414-.913-4.468C8.4 3.676 5.947 2.432 5.405 2.8zM21.54 21.631c1.368 1.894 1.824 4.58 1.282 4.977-.541.395-2.993-.849-4.39-2.771-2.223-3.054-1.596-3.96-.912-4.468.713-.48 1.768-.792 4.02 2.262zM.018 10.179c-.2.622 1.767 2.545 3.99 3.28 3.621 1.16 4.305.283 4.59-.509.257-.791.228-1.922-3.392-3.082C2.954 9.133.218 9.53.018 10.18zm24.201 5.797c2.223.735 4.19 2.658 3.99 3.28-.199.65-2.935 1.046-5.187.31-3.62-1.158-3.649-2.29-3.392-3.081.285-.792.969-1.668 4.59-.51zm-24.2 3.28c.199.622 2.935 1.046 5.159.34 3.62-1.16 3.648-2.291 3.392-3.083-.257-.792-.941-1.668-4.59-.509-2.223.707-4.19 2.63-3.962 3.252zM23.05 9.84c2.224-.707 4.96-.283 5.16.34.228.621-1.739 2.544-3.963 3.251-3.648 1.188-4.332.283-4.589-.509-.256-.792-.228-1.923 3.392-3.082zM5.406 26.608c.541.395 2.993-.877 4.36-2.743 2.253-3.054 1.626-3.987.913-4.468-.684-.509-1.767-.82-4.02 2.262-1.367 1.866-1.795 4.58-1.253 4.949zM18.46 5.542c1.368-1.866 3.82-3.139 4.362-2.743.541.396.085 3.11-1.255 4.949-2.252 3.082-3.335 2.77-4.02 2.262-.683-.481-1.339-1.414.913-4.468z"
      fill="#FAD565" />
    <path clip-rule="evenodd"
      d="M50.88 42.645c1.02.533 2.17.799 3.45.799 1.282 0 2.432-.266 3.452-.799s1.819-1.27 2.397-2.21c.578-.952.867-2.023.867-3.213s-.29-2.255-.867-3.196a5.982 5.982 0 00-2.397-2.227c-1.02-.533-2.17-.799-3.451-.799-1.28 0-2.431.266-3.451.799a5.982 5.982 0 00-2.397 2.227c-.578.94-.867 2.006-.867 3.196 0 1.19.289 2.261.867 3.213.578.94 1.377 1.677 2.397 2.21zm4.794-2.805a2.56 2.56 0 01-1.343.357 2.65 2.65 0 01-1.36-.357 2.717 2.717 0 01-.952-1.037c-.238-.453-.357-.98-.357-1.581 0-.6.119-1.122.357-1.564.238-.453.555-.799.952-1.037a2.55 2.55 0 011.36-.374c.498 0 .946.125 1.343.374.408.238.73.584.969 1.037.238.442.357.963.357 1.564 0 .6-.12 1.128-.357 1.581a2.673 2.673 0 01-.97 1.037zM38.52 36.95c.703.26 1.247.64 1.632 1.139.385.499.578 1.1.578 1.802 0 1.043-.43 1.853-1.292 2.431-.861.567-2.108.85-3.74.85H29v-11.9h6.358c1.587 0 2.782.283 3.587.85.816.567 1.224 1.32 1.224 2.261 0 .555-.142 1.054-.425 1.496-.272.442-.68.799-1.224 1.071zm-5.576-2.873v1.768h1.87c.873 0 1.309-.295 1.309-.884 0-.59-.436-.884-1.309-.884h-1.87zm2.414 6.29c.884 0 1.326-.312 1.326-.935s-.442-.935-1.326-.935h-2.414v1.87h2.414zm6.79-9.095h4.012v11.9h-4.012v-11.9zm28.035 3.111h-3.485v-3.111H77.68v3.111h-3.485v8.789h-4.012v-8.789zm11.16 8.262c1.02.533 2.171.799 3.452.799 1.28 0 2.43-.266 3.45-.799s1.82-1.27 2.398-2.21c.578-.952.867-2.023.867-3.213s-.29-2.255-.867-3.196a5.982 5.982 0 00-2.397-2.227c-1.02-.533-2.17-.799-3.451-.799-1.281 0-2.431.266-3.451.799a5.982 5.982 0 00-2.397 2.227c-.578.94-.867 2.006-.867 3.196 0 1.19.289 2.261.867 3.213.578.94 1.377 1.677 2.397 2.21zm4.795-2.805a2.56 2.56 0 01-1.343.357 2.65 2.65 0 01-1.36-.357 2.717 2.717 0 01-.952-1.037c-.238-.453-.357-.98-.357-1.581 0-.6.119-1.122.357-1.564.238-.453.555-.799.952-1.037a2.55 2.55 0 011.36-.374c.498 0 .946.125 1.343.374.408.238.73.584.969 1.037.238.442.357.963.357 1.564 0 .6-.12 1.128-.357 1.581a2.673 2.673 0 01-.97 1.037zm18.558-8.568v11.9h-3.298l-4.522-5.406v5.406h-3.91v-11.9h3.298l4.522 5.406v-5.406h3.91zm11.042 5.066v-2.04h5.661v-3.026h-9.673v11.9h4.012v-3.808h4.964v-3.026h-4.964zm17.553 6.834l-.034-5.423-2.584 4.352h-1.768l-2.584-4.165v5.236h-3.655v-11.9h3.298l3.876 6.341 3.774-6.341h3.298l.034 11.9h-3.655zm7.142-.051c.94.215 1.904.323 2.89.323 1.19 0 2.198-.176 3.026-.527.838-.363 1.467-.844 1.887-1.445a3.531 3.531 0 00.629-2.04c0-.861-.233-1.541-.697-2.04a3.86 3.86 0 00-1.615-1.071c-.624-.227-1.389-.425-2.295-.595-.703-.136-1.207-.26-1.513-.374-.306-.125-.459-.306-.459-.544 0-.499.515-.748 1.547-.748 1.042 0 2.147.295 3.315.884l1.207-2.907c-.601-.34-1.298-.595-2.091-.765a10.578 10.578 0 00-2.397-.272c-1.19 0-2.205.176-3.043.527-.828.351-1.451.833-1.87 1.445a3.524 3.524 0 00-.629 2.04c0 .861.226 1.547.68 2.057.453.499.986.861 1.598 1.088.612.215 1.377.42 2.295.612.714.147 1.224.283 1.53.408.317.125.476.312.476.561 0 .215-.119.38-.357.493-.238.102-.635.153-1.19.153a7.64 7.64 0 01-2.023-.289 8.484 8.484 0 01-1.904-.799l-1.292 2.924c.6.374 1.365.674 2.295.901zm-72.897-3.465a2.586 2.586 0 00-.336-3.263 2.598 2.598 0 00-4.227.85 2.586 2.586 0 001.903 3.529 2.598 2.598 0 002.66-1.116z"
      fill="#FFFFFF" />
  </g>
</svg>
