<svg width="42" height="44" xmlns="http://www.w3.org/2000/svg">
  <path fill-rule="evenodd"
    d="M18.233 7.1c0-3.423 1.83-7.1 2.85-7.1.978 0 2.807 3.677 2.85 7.1 0 5.665-1.574 6.214-2.85 6.214s-2.85-.55-2.85-6.213zm5.7 29.757c0 3.466-1.872 7.143-2.85 7.143-1.02 0-2.85-3.677-2.85-7.143 0-5.664 1.574-6.213 2.85-6.213s2.85.549 2.85 6.213zM8.066 4.184c-.808.592-.127 4.608 1.915 7.44 3.36 4.564 4.934 4.1 5.997 3.38 1.021-.76 1.957-2.112-1.36-6.677-2.085-2.832-5.743-4.692-6.552-4.143zm24.077 28.15c2.041 2.832 2.722 6.848 1.914 7.44-.809.591-4.467-1.269-6.551-4.143-3.318-4.565-2.382-5.917-1.361-6.678 1.063-.719 2.637-1.183 5.998 3.381zM.027 15.216c-.298.93 2.637 3.804 5.955 4.903 5.402 1.733 6.423.423 6.849-.76.383-1.184.34-2.875-5.062-4.608-3.36-1.099-7.444-.507-7.742.465zm36.114 8.665c3.318 1.099 6.253 3.973 5.955 4.903-.297.972-4.38 1.564-7.741.465-5.403-1.733-5.445-3.424-5.062-4.607.425-1.184 1.446-2.494 6.848-.761zM.027 28.784c.298.93 4.381 1.564 7.7.507 5.402-1.733 5.444-3.424 5.061-4.607-.383-1.183-1.404-2.494-6.848-.76-3.318 1.056-6.253 3.93-5.913 4.86zm34.37-14.075c3.318-1.057 7.401-.423 7.7.507.34.93-2.596 3.804-5.913 4.861-5.445 1.775-6.466.422-6.849-.76-.383-1.184-.34-2.875 5.062-4.608zM8.067 39.773c.808.592 4.466-1.31 6.508-4.1 3.36-4.564 2.424-5.96 1.36-6.678-1.02-.76-2.636-1.225-5.997 3.382-2.042 2.79-2.68 6.847-1.872 7.396zM27.548 8.284c2.042-2.79 5.7-4.691 6.508-4.1.808.592.127 4.65-1.872 7.397-3.36 4.607-4.977 4.142-5.998 3.382-1.02-.719-1.999-2.114 1.362-6.679z"
    fill="#FAD565" />
</svg>
