<svg width="24" height="24" xmlns="http://www.w3.org/2000/svg">
  <path fill-rule="evenodd"
    d="M3 0a3 3 0 00-3 3v18a3 3 0 003 3h18a3 3 0 003-3V3a3 3 0 00-3-3H3zm4.26 6.241h11.174c.158.011.307.084.415.205.109.12.169.28.169.444l-.02 14.207c0 .16-.061.315-.17.429a.573.573 0 01-.413.177H7.24a2.296 2.296 0 01-1.598-.74 2.476 2.476 0 01-.655-1.686V5.165a.63.63 0 010-.145 2.607 2.607 0 010-.298c0-.628.234-1.233.655-1.686.42-.452.993-.717 1.598-.74h11.175c.155 0 .303.065.413.178.109.114.17.268.17.43 0 .16-.061.314-.17.428a.573.573 0 01-.413.178H7.24a1.15 1.15 0 00-.773.384c-.202.225-.294.827-.294 1.135a1.187 1.187 0 00.294.847c.102.113.224.204.36.267.136.063.283.096.432.098zm.418-1.491a.54.54 0 000 1.078h9.703a.539.539 0 000-1.078H7.678zm4.429 6.031a.4.4 0 01.76 0l.58 1.786a.4.4 0 00.381.276h1.877a.4.4 0 01.235.724l-1.518 1.103a.4.4 0 00-.146.447l.58 1.786a.4.4 0 01-.615.447l-1.519-1.103a.4.4 0 00-.47 0l-1.519 1.103a.4.4 0 01-.615-.447l.58-1.786a.4.4 0 00-.146-.447l-1.518-1.103a.4.4 0 01.235-.724h1.877a.4.4 0 00.38-.276l.58-1.786z"
    fill="#FFFFFF" />
</svg>
