<svg width="24" height="24" xmlns="http://www.w3.org/2000/svg">
  <path fill-rule="evenodd"
    d="M0 3a3 3 0 013-3h18a3 3 0 013 3v18a3 3 0 01-3 3H3a3 3 0 01-3-3V3zm10.138-1.185A3 3 0 0114 4.688v14.624a3 3 0 01-3.862 2.873l-6-1.8A3 3 0 012 17.512V6.488a3 3 0 012.138-2.873l6-1.8zM15 4a1 1 0 011-1h3a3 3 0 013 3v1a1 1 0 01-2 0V6a1 1 0 00-1-1h-3a1 1 0 01-1-1zm6 12a1 1 0 011 1v1a3 3 0 01-3 3h-3a1 1 0 010-2h3a1 1 0 001-1v-1a1 1 0 011-1zM9 11a1 1 0 100 2h.001a1 1 0 000-2H9zm10.53-1.281a.75.75 0 00-1.06 1.06l.72.72H16a.75.75 0 000 1.5h3.19l-.72.72a.75.75 0 001.06 1.06l2-2a.748.748 0 000-1.06l-2-2z"
    fill="#2E653C" />
</svg>
