<svg width="24" height="24" xmlns="http://www.w3.org/2000/svg">
  <path fill-rule="evenodd"
    d="M3 0a3 3 0 00-3 3v15h3L.843 23.085A2.99 2.99 0 003 24l2-6h4l-1.333 6H10l.625-6h3.75L15 24h2.333L16 18h4l1.949 5.847a3.009 3.009 0 001.817-1.684L22 18h2V3a3 3 0 00-3-3H3zm7 3a1 1 0 000 2h.444l-.11 2H7V6a1 1 0 00-2 0v1a2 2 0 00-2 2v2a2 2 0 002 2h2v1H3a1 1 0 00-1 1v1a1 1 0 001 1h17a1 1 0 001-1v-1a1 1 0 00-1-1h-4v-1h1.943a1 1 0 00.998-1.056l-.172-3.106 1.34-2.338h1.233l.288.33a.5.5 0 00.752-.66l-.437-.5a.5.5 0 00-.377-.17h-1.75a.5.5 0 00-.434.251l-.717 1.253L18.555 5H19a1 1 0 000-2h-9zm1.434 2.929A1 1 0 0112.43 5h4.138a1 1 0 01.997.929l.358 5A1 1 0 0116.925 12h-4.852a1 1 0 01-.998-1.071l.358-5z"
    fill="#FFFFFF" />
</svg>
