<svg width="24" height="24" xmlns="http://www.w3.org/2000/svg">
  <path fill-rule="evenodd"
    d="M3 0a3 3 0 00-3 3v18a3 3 0 003 3h18a3 3 0 003-3V3a3 3 0 00-3-3H3zm12.329 5.765h3.636a1 1 0 00-.262-.46l-2.914-2.914a1 1 0 00-.46-.261v3.635zm3.667 6.367V6.765h-3.667a1 1 0 01-1-1V2.1H5.996a1 1 0 00-1 1v17.833a1 1 0 001 1h5.133a6.39 6.39 0 01-1.467-4.083c0-1.08.267-2.097.738-2.99H9.69a.5.5 0 110-1h1.362a6.449 6.449 0 011.494-1.368H9.69a.5.5 0 010-1h5.515a6.39 6.39 0 013.79.64zM7.329 9.17a.5.5 0 000 1h.122a.5.5 0 100-1h-.122zm2.362 0a.5.5 0 000 1h5.793a.5.5 0 000-1H9.69zm-2.362 2.32a.5.5 0 100 1h.122a.5.5 0 000-1h-.122zm-.5 2.868a.5.5 0 01.5-.5h.122a.5.5 0 010 1h-.122a.5.5 0 01-.5-.5zm9.25 8.74a5.25 5.25 0 100-10.5 5.25 5.25 0 000 10.5zm.5-8.75a.5.5 0 10-1 0v3.6a.5.5 0 00.297.456l2.447 1.084a.5.5 0 00.405-.914l-2.149-.952v-3.275z"
    fill="#2E653C" />
</svg>
