<svg width="24" height="24" xmlns="http://www.w3.org/2000/svg">
  <path fill-rule="evenodd"
    d="M3 0a3 3 0 00-3 3v18a3 3 0 003 3h18a3 3 0 003-3V3a3 3 0 00-3-3H3zm9 2.5c-.424 0-.84.112-1.208.326v-.001L4.708 6.359A2.443 2.443 0 003.5 8.466v7.068c0 .427.112.846.324 1.216.212.37.517.676.884.89l6.084 3.534a2.405 2.405 0 002.416 0l6.084-3.534a2.444 2.444 0 001.208-2.106V8.465a2.443 2.443 0 00-1.208-2.106l-6.084-3.533A2.405 2.405 0 0012 2.5zM9.95 9.937a2.89 2.89 0 014.1 0 2.927 2.927 0 010 4.127 2.89 2.89 0 01-4.1 0 2.927 2.927 0 010-4.127z"
    fill="#2E653C" />
</svg>
