<svg width="24" height="24" xmlns="http://www.w3.org/2000/svg">
  <path fill-rule="evenodd"
    d="M3 0a3 3 0 00-3 3v18a3 3 0 003 3h18a3 3 0 003-3V3a3 3 0 00-3-3H3zm.952 3.952A3.25 3.25 0 003 6.25v11.5A3.25 3.25 0 006.25 21h11.5A3.25 3.25 0 0021 17.75V6.25A3.25 3.25 0 0017.75 3H6.25a3.25 3.25 0 00-2.298.952zM13.25 10a.75.75 0 010-1.5h3.5a.75.75 0 110 1.5h-3.5zm-.53 4.22a.75.75 0 01.53-.22h3.5a.75.75 0 110 1.5h-3.5a.75.75 0 01-.53-1.28zm-1.766-5.683a.75.75 0 01-.174.243l-2 2a.75.75 0 01-1.06 0l-1-1a.75.75 0 011.06-1.06l.47.47 1.47-1.47a.75.75 0 011.234.817zM10.25 13a.75.75 0 01.53 1.279l-2 2a.75.75 0 01-1.06 0l-1-1a.75.75 0 011.06-1.06l.47.47 1.47-1.47a.75.75 0 01.53-.22z"
    fill="#FFFFFF" />
</svg>
