<svg width="24" height="24" xmlns="http://www.w3.org/2000/svg">
  <path fill-rule="evenodd"
    d="M3 0a3 3 0 00-3 3v18a3 3 0 003 3h18a3 3 0 003-3V3a3 3 0 00-3-3H3zm2 4a1 1 0 00-1 1v4.087a1 1 0 01-.485.858l-1.163.697a1 1 0 00-.485.857c0 .332.45.494.696.272a5.333 5.333 0 018.904 3.962c0 .555.412 1.067.967 1.067h2.47c.498 0 .906-.374 1.089-.836a3.735 3.735 0 013.545-2.363c.735.013 1.529-.49 1.529-1.224v-.59a1 1 0 00-.844-.987l-.446-.07a1 1 0 01-.844-.988V8.8c0-.295.24-.533.534-.533a.533.533 0 100-1.067H18.867a1 1 0 00-1 1v1.057a1 1 0 01-1.156.989l-3.37-.533a1 1 0 01-.806-.716l-.938-3.324a.477.477 0 01.46-.606.477.477 0 00.476-.477v-.057A.533.533 0 0012 4H5zm5.524 1.795a1 1 0 00-.963-.728H6.067a1 1 0 00-1 1v2.266a1 1 0 001 1h4.837c.02 0 .04.002.059.005a.38.38 0 00.425-.478l-.864-3.065zM6.134 20a4.267 4.267 0 100-8.533 4.267 4.267 0 000 8.533zm16-2.667a2.667 2.667 0 11-5.334 0 2.667 2.667 0 015.333 0z"
    fill="#2E653C" />
</svg>
