<svg width="24" height="24" xmlns="http://www.w3.org/2000/svg">
  <path fill-rule="evenodd"
    d="M3 0a3 3 0 00-3 3v18a3 3 0 003 3h18a3 3 0 003-3V3a3 3 0 00-3-3H3zm7.382 12c2.646 0 4.79-2.126 4.79-4.75s-2.144-4.75-4.79-4.75c-2.645 0-4.79 2.126-4.79 4.75S7.737 12 10.382 12zm3.585 1.21l-1.788 7.102-1.198-5.046 1.198-2.079H8.586l1.198 2.079-1.198 5.046-1.789-7.102C4.13 13.336 2 15.5 2 18.175v1.544A1.79 1.79 0 003.796 21.5h13.172a1.79 1.79 0 001.797-1.781v-1.544c0-2.676-2.13-4.84-4.798-4.965zm7.203-5.118c0 1.535-1.233 2.778-2.754 2.778s-2.754-1.243-2.754-2.778 1.233-2.778 2.754-2.778 2.754 1.243 2.754 2.778zm-1.186 3.473h.36c1.596 0 2.892 1.306 2.892 2.917v.903c0 .575-.463 1.042-1.033 1.042H19.26c-.51-2.07-2.42-3.607-4.698-3.607-.157 0-.313.007-.466.021a2.883 2.883 0 012.391-1.276h.36a3.722 3.722 0 003.137 0z"
    fill="#2E653C" />
</svg>
